<svg id="Capa_1" enable-background="new 0 0 512 512" height="512" viewBox="0 0 512 512" width="512" xmlns="http://www.w3.org/2000/svg"><g><g><g clip-rule="evenodd" fill-rule="evenodd"><path d="m7.5 22.5h497v30h-497z" fill="#adb9c8"/><path d="m115.002 234.751c7.907 0 14.861-4.079 18.874-10.247 2.294-3.526 3.626-7.734 3.626-12.254 0-12.442-10.09-22.5-22.5-22.5-12.427 0-22.5 10.074-22.5 22.5s10.074 22.501 22.5 22.501z" fill="#adb9c8"/><path d="m211.002 259.751c13.807 0 25-11.193 25-25.001s-11.193-25-25-25c-13.651 0-24.747 10.941-24.995 24.532-.331 13.963 11.074 25.469 24.995 25.469z" fill="#e08ea2"/><ellipse cx="163.002" cy="137.249" fill="#c7efbc" rx="20" ry="20" transform="matrix(.387 -.922 .922 .387 -26.676 234.354)"/><path d="m68.501 294.5h45.001c8.25 0 15 6.751 15 15v15h89.998v-15c0-8.249 6.75-15 15-15h45c8.25 0 15 6.751 15 15v15h89.999v-15c0-8.249 6.75-15 15-15h45.001c8.25 0 15 6.751 15 15v15h31v-272h-467v272h31.001v-15c0-8.249 6.75-15 15-15zm142.501-84.75c13.807 0 25 11.193 25 25s-11.193 25.001-25 25.001-25.001-11.193-25.001-25.001c.001-13.8 11.189-25 25.001-25zm-48-52.501c-11.061 0-20-8.969-20-20 0-11.046 8.954-20 20-20s20 8.954 20 20c0 11.054-8.962 20-20 20zm-25.5 55.001c0 12.377-10.023 22.5-22.5 22.5-12.427 0-22.5-10.074-22.5-22.5s10.074-22.5 22.5-22.5c12.358 0 22.5 10.006 22.5 22.5z" fill="#e5ecf5"/><path d="m188.5 489.5h134.999v-74.999l-52.499-22.501h-30l-52.5 22.501z" fill="#e5ecf5"/><path d="m353.499 489.5h134.999v-74.999l-52.5-22.501h-29.999l-52.5 22.501z" fill="#e08ea2"/><path d="m23.502 489.5h134.999v-74.999l-52.5-22.501h-30l-52.499 22.501z" fill="#c7efbc"/><path d="m241 392h30l22.5-22.5v-60c0-8.249-6.75-15-15-15h-45.001c-8.25 0-15 6.75-15 15v60z" fill="#adb9c8"/><path d="m76.001 392h30l22.5-22.5v-60c0-8.249-6.75-15-15-15h-45c-8.25 0-15 6.75-15 15v60z" fill="#adb9c8"/><path d="m405.999 392h30l22.5-22.5v-60c0-8.249-6.75-15-15-15h-45.001c-8.25 0-15 6.75-15 15v60z" fill="#adb9c8"/><path d="m7.5 22.5h22.5v30h-22.5z" fill="#72869e"/><path d="m22.5 52.5h22.5v272h-22.5z" fill="#b0c5e0"/><path d="m122.504 233.469c-19.88-7.025-19.882-35.409-.003-42.437-14.481-5.12-30 5.585-30 21.218.001 15.635 15.521 26.338 30.003 21.219z" fill="#72869e"/><path d="m170.501 155.794c-16.576-6.711-16.574-30.38.001-37.09-12.987-5.256-27.5 4.257-27.5 18.545 0 14.287 14.511 23.801 27.499 18.545z" fill="#8edf78"/><path d="m218.514 258.602c-23.257-7.328-23.206-40.422-.01-47.707-15.765-4.952-32.189 6.601-32.496 23.387-.408 17.171 16.425 29.38 32.506 24.32z" fill="#c21d44"/><path d="m405.999 392h15l-22.5-22.5v-60c0-8.249 6.75-15 15-15h-15c-8.25 0-15 6.75-15 15v60zm-329.998 0h15l-22.5-22.5v-60c0-8.249 6.75-15 15-15h-15c-8.25 0-15 6.75-15 15v60zm164.999 0h15l-22.5-22.5v-60c0-8.249 6.75-15 15-15h-15c-8.25 0-15 6.75-15 15v60z" fill="#72869e"/><path d="m188.5 489.5h15v-81.428l-15 6.429z" fill="#b0c5e0"/><path d="m353.499 489.5h15v-81.428l-15 6.429z" fill="#c21d44"/><path d="m23.502 489.5h14.999v-81.428l-14.999 6.429z" fill="#8edf78"/></g><g><path d="m467 149.999h-15v-45h15zm0-60h-15v-15h15z" fill="#fff"/></g></g><g><path d="m497 242.001v-182.001h15v-45h-437v15h422v15h-482v-15h45v-15h-60v45h15v272h31.001v40.606l16.864 16.864-46.863 20.085v72.445h-16.002v15h512v-15h-16.001v-72.444l-46.863-20.085 16.864-16.864v-40.607h31v-74.999h-15v59.999h-16.001v-7.5c0-12.406-10.093-22.5-22.5-22.5h-45.001c-12.406 0-22.5 10.094-22.5 22.5v7.5h-74.998v-7.5c0-12.406-10.094-22.5-22.5-22.5h-45c-12.407 0-22.5 10.094-22.5 22.5v7.5h-74.999v-7.5c0-12.406-10.094-22.5-22.5-22.5h-45c-12.406 0-22.5 10.094-22.5 22.5v7.5h-16.001v-257h452v182.001zm-465.999 177.445 46.54-19.946h26.92l46.539 19.946v62.554h-119.999zm211.539-19.946h26.92l46.54 19.946v62.554h-120v-62.554zm238.458 82.5h-119.999v-62.554l46.54-19.946h26.92l46.539 19.946zm-89.999-172.5c0-4.136 3.364-7.5 7.5-7.5h45.001c4.135 0 7.5 3.364 7.5 7.5v56.894l-18.108 18.106h-23.787l-18.106-18.106zm-15 22.5v40.606l16.864 16.864-46.863 20.085v72.445h-15v-72.444l-46.864-20.085 16.864-16.865v-40.606zm-149.999-22.5c0-4.136 3.364-7.5 7.5-7.5h45c4.136 0 7.5 3.364 7.5 7.5v56.894l-18.107 18.106h-23.787l-18.106-18.106zm-15 22.5v40.606l16.864 16.864-46.864 20.086v72.444h-15v-72.444l-46.864-20.085 16.864-16.864v-40.607zm-149.999-22.5c0-4.136 3.364-7.5 7.5-7.5h45c4.136 0 7.5 3.364 7.5 7.5v56.894l-18.107 18.106h-23.787l-18.106-18.106z"/><path d="m85.002 212.25c0 16.543 13.458 30.001 30 30.001 8.642 0 16.438-3.678 21.917-9.546l42.121 7.901c2.767 15.134 16.041 26.645 31.962 26.645 17.921 0 32.5-14.58 32.5-32.501 0-16.409-12.225-30.007-28.045-32.187l-29.65-49.963c2.963-4.387 4.694-9.671 4.694-15.351 0-15.163-12.337-27.5-27.5-27.5s-27.5 12.337-27.5 27.5c0 4.642 1.161 9.016 3.2 12.855l-25.403 32.197c-15.752.887-28.296 13.979-28.296 29.949zm30 15.001c-8.271 0-15-6.729-15-15.001s6.729-15 15-15 15 6.729 15 15-6.729 15.001-15 15.001zm64.849-1.754-35.583-6.674c.475-2.117.734-4.315.734-6.573 0-11.29-6.271-21.139-15.51-26.258l19.705-24.975c4.06 2.368 8.775 3.731 13.805 3.731 3.974 0 7.749-.854 11.163-2.377l24.996 42.121c-9.254 3.635-16.449 11.393-19.31 21.005zm48.652 9.253c0 9.65-7.851 17.501-17.5 17.501s-17.5-7.851-17.5-17.501c0-9.649 7.851-17.5 17.5-17.5s17.5 7.851 17.5 17.5zm-65.501-110.001c6.893 0 12.5 5.607 12.5 12.5s-5.607 12.5-12.5 12.5-12.5-5.607-12.5-12.5 5.607-12.5 12.5-12.5z"/><path d="m306.999 196h97.5v15h-97.5z"/><path d="m276.999 196h15v15h-15z"/><path d="m276.999 166h67.5v15h-67.5z"/><path d="m359.498 166h45v15h-45z"/><path d="m276.999 136.001h97.499v15h-97.499z"/><path d="m389.498 136.001h15v15h-15z"/></g></g></svg>