<svg id="Capa_1" enable-background="new 0 0 512 512" height="512" viewBox="0 0 512 512" width="512" xmlns="http://www.w3.org/2000/svg"><g><g><g clip-rule="evenodd" fill-rule="evenodd"><path d="m256 136.488c-154.081-48.511-142.886 211.46 0 211.46s154.081-259.972 0-211.46z" fill="#e08ea2"/><path d="m256 14.504c-45.711 16.101-45.711 78.959 0 95.06 45.711-16.101 45.711-78.959 0-95.06z" fill="#c7efbc"/><path d="m127.499 437.948v29.999h354.501v-90h-444.5v90h30v-29.999z" fill="#e5ecf5"/><path d="m127.499 497.947h377.001v-30h-377.001zm-119.999-15v-120c0-8.25 6.75-15 15-15h482v30h-467v90h30v30h-45c-8.25 0-15-6.75-15-15z" fill="#c7efbc"/><path d="m67.5 437.948h59.999v60h-59.999z" fill="#e08ea2"/><path d="m256 14.504c-45.711 16.101-45.711 78.959 0 95.06 4.124-1.453 7.87-3.291 11.25-5.436-30.703-19.486-30.704-64.701 0-84.188-3.38-2.145-7.126-3.983-11.25-5.436z" fill="#8edf78"/><path d="m231.702 131.191c-132.258-15.36-108.544 230.593 35.548 216.165-116.419-11.664-135.323-203.162-35.548-216.165z" fill="#c21d44"/><path d="m7.5 482.947c0 8.25 6.75 15 15 15h15c-8.25 0-15-6.75-15-15v-120c0-8.25 6.75-15 15-15h-15c-8.25 0-15 6.75-15 15zm119.999 15h15v-30h-15z" fill="#8edf78"/><path d="m67.5 437.948h15v60h-15z" fill="#c21d44"/><path d="m60 377.947h-22.5v90h22.5zm67.499 60.001h15v30h-15z" fill="#b0c5e0"/></g><g><path d="m337.285 248.707h-15v-15h15zm0-30h-15c0-7.775-1.563-46.748-32.407-50.419l1.773-14.895c15.459 1.84 27.87 10.253 35.89 24.33 6.283 11.031 9.744 25.586 9.744 40.984z" fill="#fff"/></g></g><path d="m512 385.447v-45h-199.567c20.715-12.2 37.605-31.525 48.975-56.854 10.102-22.502 14.778-48.209 13.171-72.385-1.698-25.545-9.984-47.354-23.962-63.068-20.291-22.814-50.968-30.304-87.117-21.527v-11.994c20.993-9.495 34.283-29.601 34.283-52.584 0-24.763-15.423-46.196-39.291-54.604l-2.492-.878-2.492.877c-23.868 8.408-39.291 29.842-39.291 54.604 0 22.983 13.291 43.09 34.283 52.584v12.004c-45.39-11.064-81.458 3.43-99.834 40.636l13.449 6.643c15.619-31.625 46.18-42.792 86.385-31.792v16.878h15v-16.883c32.468-8.894 58.64-3.412 75.909 16.003 23.832 26.795 27.329 76.985 8.315 119.343-17.972 40.035-51.399 62.997-91.712 62.997h-.012c-40.421 0-65.021-21.895-78.541-40.262-23.437-31.839-31.651-77.431-20.441-113.447l-14.322-4.457c-12.558 40.348-3.441 91.304 22.684 126.797 9.669 13.135 21.302 23.676 34.394 31.369h-177.274c-12.406 0-22.5 10.094-22.5 22.5v120c0 12.406 10.094 22.5 22.5 22.5h414.501v-15h-302.002v-15h362.001v15h-45v15h60v-45h-22.5v-75zm-282.783-323.413c0-13.997 7.096-31.416 26.783-39.507 19.688 8.091 26.783 25.51 26.783 39.507 0 12.047-5.265 26.624-19.283 35.611v-45.658h-15v45.658c-14.018-8.987-19.283-23.563-19.283-35.611zm-214.217 420.913v-120c0-4.136 3.364-7.5 7.5-7.5h474.5v15h-467v105h30v15h-37.5c-4.136 0-7.5-3.364-7.5-7.5zm45-22.5h-15v-15h15zm15 30v-45h44.999v45zm399.5-89.999h-309.501v15h309.501v14.999h-132.251v15h132.251v15h-339.501v-15h192.25v-15h-282.249v-14.999h104.999v-15h-104.999v-15.001h429.5z"/></g></svg>