<svg id="Capa_1" enable-background="new 0 0 512 512" height="512" viewBox="0 0 512 512" width="512" xmlns="http://www.w3.org/2000/svg"><g><g><g clip-rule="evenodd" fill-rule="evenodd"><path d="m60 203.502c29.142 0 52.5-23.659 52.5-52.5 0-28.995-23.505-52.5-52.5-52.5s-52.5 23.505-52.5 52.5 23.505 52.5 52.5 52.5zm392 0c29.142 0 52.5-23.659 52.5-52.5 0-28.995-23.505-52.5-52.5-52.5s-52.5 23.505-52.5 52.5 23.505 52.5 52.5 52.5zm-196 300.998c29.142 0 52.5-23.659 52.5-52.5 0-28.995-23.505-52.5-52.5-52.5s-52.5 23.505-52.5 52.5 23.505 52.5 52.5 52.5z" fill="#cfdbfa"/><path d="m71.256 202.291c-54.602-11.916-54.606-90.655-.006-102.577-32.555-7.109-63.75 17.589-63.75 51.287 0 33.705 31.198 58.394 63.756 51.29zm392 0c-54.602-11.916-54.607-90.655-.006-102.577-32.555-7.108-63.75 17.589-63.75 51.288-.001 33.704 31.197 58.393 63.756 51.289zm-196 300.998c-54.602-11.916-54.607-90.655-.006-102.577-32.555-7.108-63.75 17.589-63.75 51.288 0 33.705 31.198 58.393 63.756 51.289z" fill="#6e91ef"/><circle cx="256" cy="256" fill="#faef93" r="52.5"/><path d="m267.256 307.289c-54.602-11.916-54.607-90.655-.006-102.577-32.555-7.109-63.75 17.589-63.75 51.288 0 33.705 31.198 58.393 63.756 51.289z" fill="#f8e868"/><path d="m256 112.501c29.142 0 52.5-23.659 52.5-52.5 0-28.995-23.505-52.5-52.5-52.5s-52.5 23.504-52.5 52.499 23.505 52.501 52.5 52.501zm196 300.998c29.142 0 52.5-23.659 52.5-52.5 0-28.995-23.505-52.5-52.5-52.5s-52.5 23.505-52.5 52.5c-.001 28.995 23.505 52.5 52.5 52.5zm-392 0c29.142 0 52.5-23.659 52.5-52.5 0-28.995-23.505-52.5-52.5-52.5s-52.5 23.505-52.5 52.5 23.505 52.5 52.5 52.5z" fill="#c7efbc"/><path d="m267.256 111.29c-54.602-11.916-54.607-90.655-.006-102.577-32.556-7.109-63.75 17.589-63.75 51.287 0 33.706 31.198 58.394 63.756 51.29zm196 300.998c-54.602-11.916-54.607-90.655-.006-102.577-32.555-7.109-63.75 17.589-63.75 51.288-.001 33.705 31.197 58.393 63.756 51.289zm-392 0c-54.602-11.916-54.607-90.655-.006-102.577-32.555-7.109-63.75 17.589-63.75 51.288 0 33.705 31.198 58.393 63.756 51.289z" fill="#8edf78"/></g><g><path d="m271.001 444.5h-15v-15h15zm196-91.001h-15.001v-15h15.001zm-392 0h-15v-15h15zm196-104.999h-15v-15h15zm196-104.998h-15.001v-15h15.001zm-392 0h-15v-15h15zm196-91.001h-15v-15h15z" fill="#fff"/></g></g><g><path d="m134.821 124.531 70.371-32.673c10.628 16.888 29.423 28.142 50.808 28.142 33.084 0 60-26.916 60-60 0-13.081-4.137-25.513-11.963-35.954l-12.002 8.996c5.865 7.825 8.965 17.147 8.965 26.958 0 24.813-20.187 45-45 45s-45-20.187-45-45 20.187-45 45-45c9.812 0 19.134 3.1 26.958 8.965l8.996-12.002c-10.44-7.826-22.873-11.963-35.954-11.963-33.084 0-60 26.916-60 60 0 6.367 1.006 12.502 2.852 18.265l-70.347 32.662z"/><path d="m377.179 387.469-70.371 32.673c-9.365-14.881-25.074-25.371-43.308-27.657v-57.485h-15v57.484c-29.555 3.705-52.5 28.973-52.5 59.516 0 33.084 26.916 60 60 60s60-26.916 60-60c0-6.367-1.006-12.502-2.852-18.265l70.347-32.662zm-121.179 109.531c-24.813 0-45-20.187-45-45s20.187-45 45-45 45 20.187 45 45-20.187 45-45 45z"/><path d="m488.034 334.04c5.865 7.827 8.966 17.148 8.966 26.958 0 24.813-20.187 45-45 45s-45.001-20.187-45.001-45 20.188-45 45.001-45c9.812 0 19.133 3.1 26.958 8.966l8.996-12.002c-8.423-6.314-18.143-10.223-28.454-11.5v-71.461h-15v71.482c-29.556 3.704-52.501 28.972-52.501 59.515 0 33.084 26.916 60 60.001 60 33.084 0 60-26.916 60-60 0-13.079-4.137-25.512-11.962-35.954z"/><path d="m52.5 210.516v71.482h15v-71.482c17.048-2.137 31.886-11.446 41.399-24.811l73.915 39.597 7.083-13.222-73.894-39.585c2.572-6.678 3.996-13.921 3.996-21.494 0-33.084-26.916-60-60-60s-60 26.916-60 60c.001 30.543 22.946 55.811 52.501 59.515zm7.5-104.515c24.813 0 45 20.187 45 45s-20.187 45-45 45-45-20.187-45-45 20.187-45 45-45z"/><path d="m120 360.999c0-33.084-26.916-60-60-60s-60 26.916-60 60c0 15.241 5.724 29.77 16.116 40.911l10.969-10.231c-7.793-8.355-12.085-19.251-12.085-30.68 0-24.813 20.187-45 45-45s45 20.187 45 45-20.187 45-45 45c-8.081 0-16.007-2.168-22.92-6.269l-7.653 12.9c9.229 5.475 19.801 8.369 30.574 8.369 21.385 0 40.18-11.254 50.807-28.142l70.371 32.673 6.316-13.605-70.347-32.661c1.847-5.763 2.852-11.898 2.852-18.265z"/><path d="m316 256c0-30.543-22.945-55.81-52.5-59.515v-57.484h-15v57.484c-29.555 3.705-52.5 28.972-52.5 59.515 0 7.573 1.424 14.816 3.996 21.493l-73.893 39.585 7.083 13.222 73.915-39.597c10.885 15.294 28.74 25.297 48.899 25.297s38.014-10.004 48.899-25.297l73.914 39.597 7.084-13.222-73.893-39.586c2.572-6.676 3.996-13.919 3.996-21.492zm-60 45c-24.813 0-45-20.187-45-45s20.187-45 45-45 45 20.187 45 45-20.187 45-45 45z"/><path d="m329.187 225.302 73.914-39.596c10.885 15.292 28.74 25.296 48.899 25.296 33.084 0 60-26.916 60-60s-26.916-60-60-60c-21.385 0-40.181 11.254-50.808 28.142l-70.37-32.672-6.316 13.604 70.346 32.661c-1.846 5.763-2.852 11.898-2.852 18.265 0 7.573 1.425 14.816 3.996 21.494l-73.893 39.585zm122.813-119.301c24.813 0 45 20.187 45 45s-20.187 45-45 45-45.001-20.187-45.001-45 20.188-45 45.001-45z"/></g></g></svg>