<svg id="Capa_1" enable-background="new 0 0 512 512" height="512" viewBox="0 0 512 512" width="512" xmlns="http://www.w3.org/2000/svg"><g><g><g clip-rule="evenodd" fill-rule="evenodd"><path d="m105 7.5h399.5v30h-399.5z" fill="#f0d5b3"/><path d="m209.999 269.773 78.75-63.751-1.167 49.134-92.583 82.34v7.5h294.501v-307.496h-369.501v82.273c41.25 0 74.999 33.75 74.999 74.999v75z" fill="#e5ecf5"/><path d="m142.499 37.5h-22.5v82.273c7.83 0 15.389 1.219 22.5 3.472z" fill="#b0c5e0"/><path d="m119.999 377.001h75v-39.505l92.582-82.339 1.167-49.135-78.749 63.751h-37.5l-52.5 48.749z" fill="#faef93"/><path d="m119.999 377.001v-58.479l-52.499-37.499-37.5 11.25v84.728z" fill="#faef93"/><path d="m67.5 281.023 52.499 37.499 52.5-48.749h-67.499z" fill="#e5ecf5"/><path d="m105 269.773h29.999l30-30v-30.001l-45-14.999h-44.999v45z" fill="#fbf2e2"/><path d="m105 269.773-30-30v-45h45l45 15v30l-30.001 30h60v-75c0-41.249-33.75-74.999-74.999-74.999-41.25 0-75 33.749-75 74.999v93z" fill="#adb9c8"/><path d="m7.5 377.001h224.998v30h-224.998z" fill="#f0d5b3"/><path d="m22.5 407.001h194.998v97.499h-194.998z" fill="#f0d5b3"/><path d="m127.499 120.15c-43.926-4.415-82.499 30.336-82.499 74.623v93l15-4.5v-88.5c0-38.72 29.736-70.829 67.499-74.623z" fill="#72869e"/><path d="m105 269.773h14.999l-30-30v-45h-14.999v45z" fill="#f7e0ba"/><path d="m45 287.773-15 4.5v84.728h15z" fill="#f8e868"/><path d="m7.5 377.001h22.5v30h-22.5z" fill="#dfa357"/><path d="m22.5 407.001h22.5v97.499h-22.5z" fill="#dfa357"/><path d="m105 7.5h22.5v30h-22.5z" fill="#dfa357"/></g><g><path d="m194.999 444.501h-15v-15h15zm272.001-369.501h-15v-15h15zm-30 0h-15v-15h15z" fill="#fff"/></g></g><g><path d="m512 0h-414.5v45h15v67.629c-16.273 1.509-31.904 7.884-44.663 18.342l9.509 11.602c12.036-9.866 27.184-15.299 42.654-15.299 37.219 0 67.499 30.28 67.499 67.499v67.501h-34.393l19.394-19.394v-38.512l-51.283-17.095h-53.717v55.606l23.318 23.318-38.318 11.496v-82.921c0-15.471 5.433-30.618 15.298-42.652l-11.6-9.51c-12.058 14.709-18.698 33.234-18.698 52.162v87.421l-15 4.5v82.808h-22.5v45h15v97.499h209.999v-97.499h15v-45h-37.5v-17.005h219.502v-15h-215.716l88.717-78.902 1.193-50.199 13.343-19.799-12.439-8.383-13.941 20.687-75.813 61.374h-4.845v-67.501c0-42.961-33.012-78.339-74.999-82.143v-67.63h354.499v292.496h-45v15h60v-307.496h15zm-377.001 277.272h18.401l-34.021 31.591-35.073-25.052 21.794-6.539zm-52.499-75h36.283l38.717 12.905v21.488l-25.607 25.606h-23.786l-25.607-25.605zm-45 95.582 28.633-8.59 46.366 33.119v47.119h-37.499v-37.5h-15v37.5h-22.5zm172.499 199.146h-179.999v-82.499h179.999zm14.999-97.499h-209.998v-15h209.998zm-12.344-122.228 68.212-55.219-.705 29.665-92.662 82.41v35.372h-60v-47.708l47.945-44.52zm284.346-247.273h-384.5v-15h384.5z"/><path d="m340.573 91.267-19.393-19.394h-58.713l-19.394 19.394v115.605h15v-52.5h67.5v52.5h15zm-15 48.105h-67.5v-41.893l10.606-10.606h46.287l10.606 10.606v41.893z"/><path d="m355.573 139.372v67.5h75v-97.499h-75v15h60v14.999zm60 52.5h-45v-37.5h45z"/><path d="m355.573 251.872h75v15h-75z"/><path d="m325.573 221.872h15v15h-15z"/><path d="m355.573 221.872h75v15h-75z"/><path d="m325.573 251.872h15v15h-15z"/></g></g></svg>